<svg xmlns="http://www.w3.org/2000/svg"> 
	<symbol id="mars-iron" viewBox="0 0 500 500">
		<title>Mars</title>
		<path d="M88.32,336.77c0,89.05,72,161.24,161.05,161.24c89.05,0,161.34-72.19,161.34-161.24c0-84.53-64.71-153.85-147.71-160.68V125
		h81.54l13.48-24H263V0l-30,24.26V101h-79.15l-13.48,24H233v51.41C151,184.88,88.32,253.44,88.32,336.77z M370.83,336.77
		c0,74.3-54.46,134.54-121.64,134.54c-67.18,0-121.64-60.24-121.64-134.54c0-74.3,54.46-134.54,121.64-134.54
		C316.37,202.23,370.83,262.46,370.83,336.77z"/>
	</symbol>

	<symbol id="venus-copper" viewBox="0 0 500 500">
		<title>Venus</title>
		<path d="M399.52,161.24C399.52,72.19,327.44,0,238.39,0C149.34,0,77.17,72.19,77.17,161.24c0,84.53,64.83,153.85,147.83,160.68V373
		h-81.85l-13.48,24H225v101l30-24.26V397h78.84l13.48-24H255v-51.41C337,313.13,399.52,244.57,399.52,161.24z M116.86,161.24
		c0-74.3,54.46-134.54,121.64-134.54c67.18,0,121.64,60.24,121.64,134.54c0,74.3-54.46,134.54-121.64,134.54
		C171.32,295.77,116.86,235.54,116.86,161.24z"/>
	</symbol>
	
	<symbol id="silver-moon" viewBox="0 0 500 500">
		<title>Moon</title>
		<path d="M183.34,0c-13.37,0-26.49,1.07-39.3,3.09c127.91,10.56,228.42,117.7,228.42,248.33c0,124.26-90.95,227.26-209.91,246.11
		c6.85,0.57,13.78,0.87,20.78,0.87c137.63,0,249.2-111.57,249.2-249.2C432.54,111.57,320.97,0,183.34,0z"/>
	</symbol>
	
	<symbol id="saturn-lead" viewBox="0 0 500 500">
		<title>Saturn</title>
		<path d="M459.72,177.49c0-97.96-79.41-177.38-177.38-177.38c-27.46,0-53.46,6.25-76.67,17.39c10.63-2.17,21.63-3.32,32.9-3.32
		c90.19,0,163.31,73.12,163.31,163.31c0,90.19-73.12,163.31-163.31,163.31c-11.27,0-22.28-1.14-32.91-3.32
		c2.68,1.29,5.18,2.5,7.93,3.65l-9.61-3.5V380h-76.23l-12.68,22H204v96.5l29-22.83V402h74.17l12.68-22H233v-31.82l-5.78-2.1
		c17.39,5.7,35.89,8.79,55.18,8.79C380.37,354.87,459.72,275.46,459.72,177.49z"/>
	</symbol>

	<symbol id="sun-gold" viewBox="0 0 500 500">
		<title>Sun</title>
		<path d="M248.87-0.62C111.22-0.62-0.37,110.97-0.37,248.62c0,137.65,111.59,249.24,249.24,249.24
			c137.65,0,249.24-111.59,249.24-249.24C498.11,110.97,386.52-0.62,248.87-0.62z M248.87,456.59
			c-103.85,0-188.03-93.11-188.03-207.97c0-114.86,84.18-207.97,188.03-207.97c103.84,0,188.03,93.11,188.03,207.97
			C436.9,363.48,352.71,456.59,248.87,456.59z"/>
		<rect x="220.37" y="219.62" transform="matrix(-0.7071 -0.7071 0.7071 -0.7071 249.0476 600.3963)" width="57" height="58"/>
	</symbol>
	
	<symbol id="jupiter-tin" viewBox="0 0 500 500">
		<title>Jupiter</title>
		<path d="M265,351v-56c-11,0-23,0-35,0v56h-88.66l98.13-131.08c6.09-6.58,11.51-13.96,16.15-21.69l1.26-1.77l-0.21-0.2
		c11.17-19.28,17.59-41.68,17.59-65.56c0-72.36-58.66-131.04-131.02-131.04c-7.03,0-13.93,0.56-20.66,1.62
		c67.25,5.55,120.1,61.88,120.1,130.56c0,18.17-3.71,35.47-10.4,51.2l-37.71,50.24c-0.31,0.25-0.63,0.5-0.95,0.75l-17.65,23.52
		c0.16-0.04,0.31-0.07,0.47-0.11L97.94,362.02l21.1,15.85l-0.06,0.13h0.21l0.88,0.66l0.49-0.66H230v119.5L265,469v-91h93.87l15.84-27
		H265z"/>
	</symbol>
	
	<symbol id="mercury-quicksilver" viewBox="0 0 500 500">
		<title>Mercury</title>
		<path d="M370.22,244.15c0-50.36-30.11-93.65-73.39-112.77c42.91-19.08,72.88-62.07,72.88-112.05c0-6.58-0.5-13.03-1.5-19.33
		c-5.19,62.91-57.88,112.35-122.13,112.35c-61.12,0-111.78-44.73-121.04-103.25c-0.28,3.37-0.42,6.78-0.42,10.22
		c0,49.98,29.92,92.97,72.83,112.05c-43.28,19.12-73.59,62.41-73.59,112.77c0,64.7,49.15,117.75,113.15,122.83V405h-62.68l-10.3,18
		H237v77.34l23-18.54V423h60.06l10.3-18H260v-38.33C322,360.08,370.22,307.74,370.22,244.15z M154.22,244.15
		c0-53.97,37.6-98.23,85.4-102.49c2.5,0.15,5.02,0.24,7.57,0.24s5.06-0.09,7.57-0.24c47.8,4.26,85.4,48.51,85.4,102.49
		c0,56.79-41.62,102.83-92.97,102.83C195.85,346.97,154.22,300.94,154.22,244.15z"/>
	</symbol>

</svg>